<svg width="32" height="39" viewBox="0 0 32 39" fill="none" xmlns="http://www.w3.org/2000/svg">
<path d="M16 8.66666C13.3629 8.66666 10.7851 9.44865 8.5924 10.9137C6.39974 12.3788 4.69078 14.4612 3.68161 16.8976C2.67244 19.3339 2.4084 22.0148 2.92287 24.6012C3.43734 27.1876 4.70721 29.5634 6.57191 31.4281C8.43661 33.2928 10.8124 34.5627 13.3988 35.0771C15.9852 35.5916 18.6661 35.3276 21.1025 34.3184C23.5388 33.3092 25.6212 31.6003 27.0863 29.4076C28.5513 27.2149 29.3333 24.6371 29.3333 22C29.3333 20.249 28.9885 18.5152 28.3184 16.8976C27.6483 15.2799 26.6662 13.81 25.4281 12.5719C24.19 11.3338 22.7201 10.3517 21.1025 9.6816C19.4848 9.01154 17.751 8.66666 16 8.66666ZM16 32.6667C13.171 32.6667 10.4579 31.5429 8.45753 29.5425C6.45714 27.5421 5.33334 24.829 5.33334 22C5.33039 19.6311 6.12402 17.3301 7.58667 15.4667L22.5333 30.4133C20.6699 31.876 18.3689 32.6696 16 32.6667ZM24.4133 28.5333L9.46667 13.5867C11.3301 12.124 13.6311 11.3304 16 11.3333C18.829 11.3333 21.5421 12.4571 23.5425 14.4575C25.5429 16.4579 26.6667 19.171 26.6667 22C26.6696 24.3689 25.876 26.6699 24.4133 28.5333Z" fill="#FFE8E8"/>
</svg>
