
<svg width="32" height="39" viewBox="0 0 32 39" fill="none" xmlns="http://www.w3.org/2000/svg">
<path d="M19.6267 17.72L13.9067 23.4533L11.7067 21.2533C11.5871 21.1137 11.44 21.0004 11.2746 20.9204C11.1092 20.8403 10.929 20.7954 10.7454 20.7883C10.5618 20.7812 10.3787 20.8121 10.2076 20.8791C10.0365 20.9462 9.88107 21.0478 9.75113 21.1778C9.62119 21.3077 9.51951 21.4631 9.45248 21.6342C9.38545 21.8053 9.35451 21.9884 9.3616 22.1721C9.36869 22.3557 9.41366 22.5359 9.4937 22.7013C9.57373 22.8667 9.68709 23.0138 9.82666 23.1333L12.96 26.28C13.0846 26.4036 13.2323 26.5013 13.3948 26.5677C13.5572 26.634 13.7312 26.6677 13.9067 26.6667C14.2565 26.6652 14.5916 26.5263 14.84 26.28L21.5067 19.6133C21.6316 19.4894 21.7308 19.3419 21.7985 19.1794C21.8662 19.0169 21.9011 18.8427 21.9011 18.6667C21.9011 18.4906 21.8662 18.3164 21.7985 18.1539C21.7308 17.9914 21.6316 17.8439 21.5067 17.72C21.2568 17.4717 20.9189 17.3323 20.5667 17.3323C20.2144 17.3323 19.8765 17.4717 19.6267 17.72ZM16 8.66666C13.3629 8.66666 10.785 9.44864 8.59239 10.9137C6.39974 12.3788 4.69077 14.4612 3.6816 16.8975C2.67243 19.3339 2.40839 22.0148 2.92286 24.6012C3.43733 27.1876 4.70721 29.5634 6.57191 31.4281C8.43661 33.2928 10.8124 34.5627 13.3988 35.0771C15.9852 35.5916 18.6661 35.3276 21.1024 34.3184C23.5388 33.3092 25.6212 31.6002 27.0863 29.4076C28.5513 27.2149 29.3333 24.6371 29.3333 22C29.3333 20.249 28.9885 18.5152 28.3184 16.8975C27.6483 15.2799 26.6662 13.81 25.4281 12.5719C24.19 11.3338 22.7201 10.3517 21.1024 9.6816C19.4848 9.01153 17.751 8.66666 16 8.66666V8.66666ZM16 32.6667C13.8903 32.6667 11.828 32.0411 10.0739 30.869C8.31979 29.6969 6.95262 28.031 6.14528 26.0819C5.33795 24.1329 5.12671 21.9882 5.53829 19.919C5.94986 17.8499 6.96576 15.9493 8.45752 14.4575C9.94928 12.9658 11.8499 11.9499 13.919 11.5383C15.9882 11.1267 18.1329 11.3379 20.082 12.1453C22.031 12.9526 23.6969 14.3198 24.869 16.0739C26.0411 17.828 26.6667 19.8903 26.6667 22C26.6667 24.829 25.5429 27.5421 23.5425 29.5425C21.5421 31.5429 18.829 32.6667 16 32.6667V32.6667Z" fill="#6FCF97"/>
</svg>
