<svg width="32" height="39" viewBox="0 0 32 39" fill="none" xmlns="http://www.w3.org/2000/svg">
<path d="M16 20.6667C15.6464 20.6667 15.3072 20.8071 15.0572 21.0572C14.8071 21.3072 14.6667 21.6464 14.6667 22V27.3333C14.6667 27.687 14.8071 28.0261 15.0572 28.2761C15.3072 28.5262 15.6464 28.6667 16 28.6667C16.3536 28.6667 16.6928 28.5262 16.9428 28.2761C17.1929 28.0261 17.3333 27.687 17.3333 27.3333V22C17.3333 21.6464 17.1929 21.3072 16.9428 21.0572C16.6928 20.8071 16.3536 20.6667 16 20.6667ZM16.5067 15.44C16.1821 15.3066 15.818 15.3066 15.4933 15.44C15.3297 15.5035 15.1801 15.5986 15.0533 15.72C14.9356 15.8496 14.8409 15.9984 14.7733 16.16C14.6987 16.3182 14.6622 16.4918 14.6667 16.6667C14.6657 16.8421 14.6993 17.0161 14.7656 17.1785C14.832 17.341 14.9298 17.4888 15.0533 17.6133C15.1829 17.7311 15.3318 17.8258 15.4933 17.8933C15.6953 17.9763 15.9146 18.0084 16.1319 17.9868C16.3492 17.9652 16.5579 17.8906 16.7396 17.7694C16.9213 17.6483 17.0705 17.4844 17.174 17.2921C17.2775 17.0998 17.3322 16.885 17.3333 16.6667C17.3284 16.3136 17.1903 15.9755 16.9467 15.72C16.8199 15.5986 16.6703 15.5035 16.5067 15.44ZM16 8.66667C13.3629 8.66667 10.7851 9.44866 8.5924 10.9137C6.39974 12.3788 4.69078 14.4612 3.68161 16.8976C2.67244 19.3339 2.4084 22.0148 2.92287 24.6012C3.43734 27.1876 4.70721 29.5634 6.57191 31.4281C8.43661 33.2928 10.8124 34.5627 13.3988 35.0771C15.9852 35.5916 18.6661 35.3276 21.1025 34.3184C23.5388 33.3092 25.6212 31.6003 27.0863 29.4076C28.5513 27.215 29.3333 24.6371 29.3333 22C29.3333 20.249 28.9885 18.5152 28.3184 16.8976C27.6483 15.2799 26.6662 13.81 25.4281 12.5719C24.19 11.3338 22.7201 10.3517 21.1025 9.68161C19.4848 9.01155 17.751 8.66667 16 8.66667ZM16 32.6667C13.8903 32.6667 11.828 32.0411 10.0739 30.869C8.3198 29.6969 6.95262 28.031 6.14529 26.082C5.33795 24.1329 5.12672 21.9882 5.53829 19.919C5.94987 17.8499 6.96577 15.9493 8.45753 14.4575C9.94929 12.9658 11.8499 11.9499 13.919 11.5383C15.9882 11.1267 18.1329 11.338 20.082 12.1453C22.031 12.9526 23.6969 14.3198 24.869 16.0739C26.0411 17.828 26.6667 19.8903 26.6667 22C26.6667 24.829 25.5429 27.5421 23.5425 29.5425C21.5421 31.5429 18.829 32.6667 16 32.6667Z" fill="#6E5404"/>
</svg>
